# xmcd CD database file generated by OrangeCD 6.1
#
# Track frame offsets:
#	182
#	11960
#	29850
#	45310
#	65230
#	76677
#	95822
#	110262
#	133212
#	150850
#	164912
#	177537
#	193365
#	204990
#	228245
#	244307
#
# Disc length: 3491 seconds
#
# Revision: 2
# Processed by: cddbd v1.5.2PL0 Copyright (c) Steve Scherf et al.
# Submitted via: OrangeCD 6.1
#
DISCID=e70da110
DTITLE=The Drifters - On Broadway
DYEAR=1988
DGENRE=Blues
TTITLE0=On Broadway
TTITLE1=Some kind of wonderful
TTITLE2=There goes my baby
TTITLE3=Three times a lady
TTITLE4=i do believe I'm falling in love
TTITLE5=Feelings
TTITLE6=Plain, sweet but simple
TTITLE7=Just the way you are
TTITLE8=Up on the roof
TTITLE9=This magic moment
TTITLE10=Try smilin'
TTITLE11=Save the last dance for me
TTITLE12=Just let your heart be your guide
TTITLE13=My way
TTITLE14=That lets me know
TTITLE15=Under the boardwald
EXTD=
EXTT0=
EXTT1=
EXTT2=
EXTT3=
EXTT4=
EXTT5=
EXTT6=
EXTT7=
EXTT8=
EXTT9=
EXTT10=
EXTT11=
EXTT12=
EXTT13=
EXTT14=
EXTT15=
PLAYORDER=
